<svg xmlns="http://www.w3.org/2000/svg" viewBox="0 0 1080 1080">
  <defs>
    <style>
      .cls-1 {
        fill: #22232e;
      }
    </style>
  </defs>
  <g id="Capa_3" data-name="Capa 3">
    <g>
      <g>
        <path class="cls-1" d="M796.84,595.27,714.05,595a57.44,57.44,0,0,0-51.61,32.38l-44.5,91.68h58.72l35.6-73.52H848.81l36.81,74.09h58.09L862.32,552.78A74.38,74.38,0,0,0,795.26,511h-2.74c-13.22,0-62.16-.14-73.34-.14l-24.67,50.58,102.35.13a16.64,16.64,0,0,1,16.62,16.64v.4a16.65,16.65,0,0,1-16.64,16.64Z"/>
        <path class="cls-1" d="M599,510.52v-.07c-41.64,0-86.05-6.29-123.1,16.86-7.09,4.43-42,27.53-48.6,71.74a96.78,96.78,0,0,0,4.58,46.45h62.63c-5.09-7.27-11.1-19.17-10.08-34.07,1.25-18.24,13-36,29.65-43.75,16.4-7.62,35.35-5.4,52.87-5.45,28.28-.09,56.55.1,84.82.1L677,510.43C652.39,510.66,623.61,510.52,599,510.52Z"/>
        <path class="cls-1" d="M360.52,672.75l-13.4-27.2h0c27.47.19,51.7-37.53,51.39-65,0-1.31,0-2.81-.06-4.47a66.59,66.59,0,0,0-66.71-65.54l-158.93.34,24.71,50.67L325,561.47A16.56,16.56,0,0,1,341.54,578h0A16.54,16.54,0,0,1,325,594.58l-93.16.2a60,60,0,0,0-53.81,33.7L133.91,719l58.73.08,35.86-73.54h59.86L323.49,717v2.11H575.28l23.08-46.34Z"/>
      </g>
      <g>
        <path class="cls-1" d="M285.19,486.5q-22.86,0-35-15.68t-12.14-47.39q0-21.43,6-35.43t17.54-20.82q11.5-6.81,28.34-6.82a64.33,64.33,0,0,1,19.75,2.83,40.29,40.29,0,0,1,15.06,8.6,37.79,37.79,0,0,1,9.66,14.44,56.24,56.24,0,0,1,3.37,20.37H304.5a26.79,26.79,0,0,0-.89-7,18.13,18.13,0,0,0-2.65-5.76,12.1,12.1,0,0,0-4.43-3.81,14.69,14.69,0,0,0-6.56-1.32,18.67,18.67,0,0,0-8,1.5,11.53,11.53,0,0,0-5.05,4.61,22.27,22.27,0,0,0-2.66,7.7,63.26,63.26,0,0,0-.79,10.63v20.56a52.65,52.65,0,0,0,1.5,13.64,14.4,14.4,0,0,0,5.14,8.15q3.63,2.65,10,2.65a14,14,0,0,0,8.15-2.21,14.17,14.17,0,0,0,4.87-5.94,19.12,19.12,0,0,0,1.68-8v-.88H287.67V416.34h50.14v68h-17.9l-2.48-11.51a42.24,42.24,0,0,1-7.79,7,35.82,35.82,0,0,1-10.46,4.87A49.76,49.76,0,0,1,285.19,486.5Z"/>
        <path class="cls-1" d="M364.38,485.44V363.55h55.1q13.63,0,21.79,5.14a29.5,29.5,0,0,1,11.78,13.73,48.44,48.44,0,0,1,3.63,19,54.75,54.75,0,0,1-3.18,19A34.09,34.09,0,0,1,443,435.12l17.19,50.32H423l-11.87-40.93h-12v40.93Zm34.73-67.15h14.17a6.59,6.59,0,0,0,6.38-4.16,23.42,23.42,0,0,0,1.95-10,24.55,24.55,0,0,0-.89-6.91,11.71,11.71,0,0,0-2.66-4.87,6.28,6.28,0,0,0-4.78-1.86H399.11Z"/>
        <path class="cls-1" d="M527.46,487q-14,0-24.05-4.57a32.61,32.61,0,0,1-15.49-14.58q-5.46-10-5.46-26.17V364h33.93v78.51q0,7.38,2.33,11.94t8.57,4.57q6.23,0,8.74-4.57t2.51-11.94V364h33.92v77.63q0,16.17-5.36,26.17a32.27,32.27,0,0,1-15.41,14.58Q541.66,487,527.46,487Z"/>
        <path class="cls-1" d="M597.22,485.93V362.49h54.93q11.51,0,19.13,5.2a31,31,0,0,1,11.34,14.53,58.38,58.38,0,0,1,3.72,21.71,60.31,60.31,0,0,1-3.9,22.61,32.78,32.78,0,0,1-11.6,15.07Q663.13,447,651.79,447H632v38.94ZM632,419.54h11a6.72,6.72,0,0,0,6.56-4.13,24.84,24.84,0,0,0,2-10.58,32.7,32.7,0,0,0-.8-7.72,10.19,10.19,0,0,0-2.66-5,7,7,0,0,0-5.05-1.79H632Z"/>
        <path class="cls-1" d="M754.24,486.5q-17,0-28.35-6.64T708.7,459.31q-5.84-13.92-5.84-35.88t5.84-35.88q5.85-13.91,17.19-20.55t28.35-6.64q16.82,0,28.25,6.64t17.19,20.55q5.75,13.92,5.76,35.88t-5.76,35.88q-5.76,13.9-17.19,20.55T754.24,486.5Zm0-28.35a15.47,15.47,0,0,0,7.61-1.68,12.66,12.66,0,0,0,4.88-5,24.12,24.12,0,0,0,2.65-7.8,56.84,56.84,0,0,0,.8-10V413.15a57,57,0,0,0-.8-10,24.22,24.22,0,0,0-2.65-7.79,12.72,12.72,0,0,0-4.88-5,15.47,15.47,0,0,0-7.61-1.68,15.93,15.93,0,0,0-7.8,1.68,12.11,12.11,0,0,0-4.78,5,25.75,25.75,0,0,0-2.57,7.79,58,58,0,0,0-.8,10v20.56a57.82,57.82,0,0,0,.8,10,25.63,25.63,0,0,0,2.57,7.8,12,12,0,0,0,4.78,5A15.93,15.93,0,0,0,754.24,458.15Z"/>
      </g>
    </g>
  </g>
</svg>
